<?xml version="1.0" encoding="UTF-8"?>
<svg width="85px" height="85px" viewBox="0 0 85 85" version="1.1" xmlns="http://www.w3.org/2000/svg" xmlns:xlink="http://www.w3.org/1999/xlink">
    <!-- Generator: Sketch 51.3 (57544) - http://www.bohemiancoding.com/sketch -->
    <title>Artboard 3</title>
    <desc>Created with Sketch.</desc>
    <defs></defs>
    <g id="Artboard-3" stroke="none" stroke-width="1" fill="none" fill-rule="evenodd">
        <g id="playerScissors" transform="translate(42.500000, 42.500000) rotate(-180.000000) translate(-42.500000, -42.500000) translate(21.000000, 9.000000)" fill="#000000" fill-rule="nonzero">
            <path d="M1.22587708,48.4849335 C1.22587708,48.6509879 1.30914547,48.8170423 1.30914547,48.9830967 L7.38773775,62.2674494 C7.63754292,62.7656126 8.13715324,63.0977214 8.63676357,63.0977214 C8.80330034,63.0977214 9.0531055,63.0977214 9.21964228,62.931667 C9.88578938,62.5995582 10.2188629,61.7692861 9.88578938,61.1050685 L3.89046548,48.0697975 L3.14104999,36.0308529 L7.63754292,42.9221108 C8.30369002,44.0014645 9.38617905,44.7487093 10.7184733,44.9977909 C11.0515468,45.0808181 11.3846204,45.0808181 11.7176939,45.0808181 C12.6336462,45.0808181 13.5495984,44.8317365 14.2990139,44.3335733 L15.0484294,43.8354101 C16.2141868,43.0881652 16.8803339,42.0088116 17.1301391,40.7634035 C17.4632126,40.8464307 17.7962862,40.8464307 18.2126281,40.8464307 C19.1285804,40.8464307 20.0445327,40.5973491 20.8772165,40.0991859 L21.626632,39.6010227 C22.7091211,38.936805 23.4585365,37.8574514 23.7083417,36.5290161 C23.9581469,35.2836081 23.7083417,33.9551728 23.0421946,32.8758191 L16.0476501,22.0822826 C15.7978449,21.6671466 15.381503,21.2520106 15.0484294,20.9199018 L10.5519365,6.39014107 C10.3853997,5.72592344 10.4686681,5.0617058 10.8017416,4.48051538 C11.1348152,3.89932495 11.7176939,3.48418893 12.383841,3.31813452 L13.2165249,3.06905291 C14.5488191,2.73694409 15.9643817,3.56721613 16.2974552,4.9786786 L23.2087314,27.5620781 C23.2087314,27.5620781 23.2087314,27.5620781 23.2087314,27.5620781 C23.2087314,27.7281325 23.2919998,27.8111597 23.3752682,27.8941869 C23.3752682,27.8941869 23.3752682,27.9772141 23.4585365,27.9772141 C23.5418049,28.0602413 23.6250733,28.1432685 23.7083417,28.2262957 C23.7083417,28.2262957 23.7083417,28.2262957 23.7916101,28.2262957 C23.8748785,28.3093229 23.9581469,28.3093229 24.1246836,28.3923501 C24.1246836,28.3923501 24.1246836,28.3923501 24.207952,28.3923501 C24.207952,28.3923501 24.207952,28.3923501 24.207952,28.3923501 C24.2912204,28.3923501 24.4577572,28.4753773 24.5410256,28.4753773 C24.5410256,28.4753773 24.5410256,28.4753773 24.5410256,28.4753773 C24.5410256,28.4753773 24.5410256,28.4753773 24.624294,28.4753773 C24.7075624,28.4753773 24.8740991,28.4753773 24.9573675,28.3923501 C24.9573675,28.3923501 24.9573675,28.3923501 24.9573675,28.3923501 C24.9573675,28.3923501 24.9573675,28.3923501 24.9573675,28.3923501 C25.0406359,28.3923501 25.0406359,28.3093229 25.1239043,28.3093229 C25.1239043,28.3093229 25.2071727,28.3093229 25.2071727,28.3093229 C25.2071727,28.3093229 25.2904411,28.3093229 25.2904411,28.2262957 C25.3737095,28.1432685 25.4569778,28.0602413 25.5402462,27.9772141 C25.5402462,27.9772141 25.6235146,27.8941869 25.6235146,27.8941869 C25.6235146,27.8111597 25.706783,27.8111597 25.706783,27.7281325 C25.706783,27.7281325 25.706783,27.6451053 25.706783,27.6451053 C25.706783,27.5620781 25.7900514,27.4790509 25.7900514,27.4790509 C25.7900514,27.4790509 25.7900514,27.4790509 25.7900514,27.4790509 L32.368254,4.81262419 C32.5347908,4.14840656 32.9511327,3.65024334 33.5340114,3.23510732 C34.1168901,2.8199713 34.7830372,2.8199713 35.4491843,2.9860257 L36.2818682,3.23510732 C36.9480153,3.40116172 37.4476256,3.81629774 37.8639676,4.39748817 C38.1970411,4.9786786 38.2803095,5.64289623 38.1137727,6.30711386 L32.1184488,29.6377582 C31.0359598,29.3886766 30.2032759,29.139595 29.786934,29.0565678 C28.704445,28.7244589 26.4561985,28.6414317 25.2904411,30.7171118 C23.7083417,33.5400368 24.207952,36.6120433 26.4561985,38.4386418 C26.4561985,38.4386418 26.5394669,38.521669 26.5394669,38.521669 L30.2865443,41.0955123 L29.8702024,42.7560564 C27.4554191,43.7523829 20.0445327,47.2395254 19.3783856,53.964729 C19.2951172,54.7119738 19.8779959,55.4592186 20.6274114,55.4592186 C21.3768269,55.5422458 22.1262423,54.9610554 22.1262423,54.2138106 C22.7091211,48.0697975 31.3690334,45.0808181 31.4523017,45.0808181 C31.9519121,44.9147637 32.2849856,44.5826549 32.368254,44.0844917 L33.2009379,40.7634035 C33.3674747,40.1822131 33.1176695,39.6010227 32.6180592,39.2689139 L28.1215662,36.1969073 C26.9558088,35.2005809 26.789272,33.623064 27.7052243,32.0455471 C28.0382979,31.4643567 28.6211766,31.6304111 28.8709817,31.7134383 C28.8709817,31.7134383 28.9542501,31.7134383 29.0375185,31.7134383 C30.1200075,31.9625199 31.3690334,32.2946287 32.7013276,32.7097647 C32.7013276,32.7097647 32.7013276,32.7097647 32.7013276,32.7097647 C32.7013276,32.7097647 32.7013276,32.7097647 32.7013276,32.7097647 C35.365916,33.4570096 38.1137727,34.2872816 38.8631882,34.868472 C41.6943134,36.6950705 39.5293353,45.3298998 37.8639676,48.4849335 C36.2818682,51.4739128 31.9519121,60.4408509 31.7021069,60.8559869 C31.6188385,61.0220413 31.6188385,61.1050685 31.5355701,61.2711229 L30.9526914,65.4224831 C30.869423,66.169728 31.3690334,66.9169728 32.1184488,67 C32.2017172,67 32.2849856,67 32.2849856,67 C32.9511327,67 33.6172798,66.5018368 33.7005482,65.7545919 L34.2834269,61.7692861 C34.949574,60.4408509 38.8631882,52.4702393 40.2787508,49.7303416 C41.7775818,46.9074166 45.5246592,35.7817713 40.3620192,32.4606831 C39.3627986,31.7964655 36.9480153,31.0492207 34.6997689,30.385003 L40.7783611,6.9713315 C41.1114347,5.55986903 40.9448979,4.14840656 40.1954824,2.9029985 C39.4460669,1.65759044 38.2803095,0.827318399 36.9480153,0.412182379 L36.1153314,0.163100767 C34.6997689,-0.169008049 33.2842063,-0.00295364073 32.0351805,0.744291195 C30.7861546,1.49153603 29.9534708,2.65391689 29.5371288,3.98235215 L24.2912204,22.0822826 L19.1285804,4.39748817 C18.3791649,1.57456324 15.4647713,-0.169008049 12.6336462,0.578236787 L11.8009623,0.827318399 C10.3853997,1.15942722 9.30291067,2.07272646 8.55349518,3.31813452 C7.80407969,4.56354258 7.63754292,5.97500505 7.97061647,7.38646752 L11.8842307,20.0896297 C11.0515468,20.0896297 10.2188629,20.3387113 9.46944744,20.8368746 C9.46944744,20.8368746 9.46944744,20.8368746 9.46944744,20.8368746 L8.72003195,21.3350378 C7.55427453,22.0822826 6.88812743,23.1616363 6.63832227,24.4070443 C6.63832227,24.4070443 6.63832227,24.4070443 6.63832227,24.4070443 C5.38929645,24.1579627 4.05700225,24.4070443 2.97451322,25.071262 L2.22509773,25.5694252 C0.47646159,26.7318061 -0.356222285,28.8074862 0.14338804,30.800139 L1.22587708,48.4849335 Z M9.46944744,24.9052076 C9.55271583,24.4070443 9.88578938,23.9088811 10.3853997,23.6597995 L11.1348152,23.1616363 C12.0507675,22.5804459 13.3830617,22.8295275 13.9659404,23.7428267 L20.9604849,34.5363632 C21.2935585,34.9514992 21.3768269,35.5326897 21.2102901,36.0308529 C21.1270217,36.5290161 20.7939481,37.0271794 20.2943378,37.276261 L19.5449223,37.7744242 C18.6289701,38.3556146 17.2966759,38.106533 16.7137972,37.1932338 L9.7192526,26.3996972 C9.38617905,25.9845612 9.30291067,25.4033708 9.46944744,24.9052076 Z M3.80719709,27.8111597 L4.55661258,27.3129965 C4.88968613,27.0639149 5.30602807,26.9808877 5.63910162,26.9808877 C5.80563839,26.9808877 5.97217517,26.9808877 6.05544355,27.0639149 C6.55505388,27.1469421 7.0546642,27.4790509 7.30446937,27.9772141 L14.2990139,38.7707506 C14.8818926,39.6840499 14.6320875,41.0124851 13.7161352,41.5936756 L12.9667197,42.0918388 C12.5503778,42.4239476 11.9674991,42.5069748 11.4678887,42.3409204 C10.9682784,42.2578932 10.4686681,41.9257844 10.2188629,41.4276212 L3.22431838,30.6340846 C2.55817128,29.7207854 2.89124483,28.3923501 3.80719709,27.8111597 Z" id="Shape"></path>
        </g>
    </g>
</svg>