<?xml version="1.0" encoding="UTF-8"?>
<svg width="85px" height="85px" viewBox="0 0 85 85" version="1.1" xmlns="http://www.w3.org/2000/svg" xmlns:xlink="http://www.w3.org/1999/xlink">
    <!-- Generator: Sketch 51.3 (57544) - http://www.bohemiancoding.com/sketch -->
    <title>Artboard 3 Copy 2</title>
    <desc>Created with Sketch.</desc>
    <defs></defs>
    <g id="Artboard-3-Copy-2" stroke="none" stroke-width="1" fill="none" fill-rule="evenodd">
        <g id="noun_Fist_959743" transform="translate(21.000000, 21.000000)" fill="#000000" fill-rule="nonzero">
            <path d="M0,8.21484992 L0,23.1658768 C0,23.9873618 0.167951668,24.7266983 0.587830837,25.3838863 L0.587830837,38.2812006 C0.587830837,38.5276461 0.671806671,38.6919431 0.755782505,38.8562401 L6.80204254,51.178515 C7.05397005,51.671406 7.55782505,52 8.06168005,52 C8.22963172,52 8.48155922,51.9178515 8.64951089,51.835703 C9.32131756,51.507109 9.6572209,50.685624 9.32131756,49.9462875 L3.44300919,37.8704581 L3.44300919,27.7661927 C3.94686419,27.9304897 4.4507192,28.0126382 4.9545742,28.0126382 L5.79433254,28.0126382 C7.47384921,28.0126382 8.98541422,27.1911532 9.82517256,25.9589258 C10.6649309,26.5339652 11.6726409,26.9447077 12.7643267,26.9447077 L13.6040851,26.9447077 C15.2836018,26.9447077 16.7951668,26.1232227 17.6349251,24.8909953 C18.4746835,25.4660348 19.4823935,25.8767773 20.5740793,25.8767773 L21.4138376,25.8767773 C21.6657651,25.8767773 21.9176926,25.8767773 22.0856443,25.7946288 C19.3144418,28.0126382 17.2150459,32.5308057 17.5509493,42.2243286 C17.5509493,42.9636651 18.222756,43.6208531 18.9785385,43.5387046 C19.734321,43.5387046 20.4061276,42.8815166 20.3221518,42.1421801 C19.8182968,27.6018957 24.6888952,26.8625592 28.9716627,26.2053712 C29.8953969,26.0410742 30.6511794,25.9589258 31.4909377,25.7124803 C32.834551,25.4660348 35.1858744,24.2338073 35.2698502,20.5371248 C35.3538261,17.2511848 32.6665994,15.9368088 31.2390102,15.6903633 C31.1550344,15.6903633 31.0710585,15.6903633 30.9870827,15.6903633 L24.4369677,15.6903633 C23.0093785,15.6903633 21.9176926,14.6224329 21.9176926,13.2259084 L21.9176926,12.2401264 C21.9176926,10.8436019 23.0093785,9.77567141 24.4369677,9.77567141 L37.6211736,9.77567141 C39.0487628,9.77567141 40.1404486,10.8436019 40.1404486,12.2401264 L40.1404486,34.8309637 C40.1404486,35.0774092 40.3923761,41.0742496 34.9339469,42.7993681 C34.3461161,42.9636651 33.9262369,43.5387046 33.9262369,44.1137441 L33.9262369,50.6034755 C33.9262369,51.342812 34.5980436,52 35.3538261,52 C36.1096086,52 36.7814152,51.342812 36.7814152,50.6034755 L36.7814152,45.0173776 C41.9879169,42.7993681 43.0796028,37.3775671 42.9956269,34.6666667 L42.9956269,12.2401264 C42.9956269,9.36492891 40.5603278,6.98262243 37.6211736,6.98262243 L34.2621402,6.98262243 L34.2621402,4.84676145 C34.2621402,2.21800948 32.0787685,1.45925048e-15 29.307566,1.45925048e-15 L28.4678077,1.45925048e-15 C27.1241943,1.45925048e-15 25.8645568,0.575039494 24.9408227,1.47867299 C24.0170885,0.575039494 22.8414268,0 21.4138376,0 L20.5740793,0 C18.8945626,0 17.3829976,0.821484992 16.5432393,2.05371248 C15.7034809,1.47867299 14.6957709,1.06793049 13.6040851,1.06793049 L12.7643267,1.06793049 C10.7489067,1.06793049 8.98541422,2.21800948 8.22963172,3.94312796 C7.47384921,3.53238547 6.63409088,3.28593997 5.7103567,3.28593997 L4.87059836,3.28593997 C2.18337168,3.36808847 0,5.50394945 0,8.21484992 Z M31.5749135,18.6477093 C31.5749135,18.7298578 31.4909377,18.8941548 31.4909377,18.9763033 L31.4909377,20.9478673 C31.4909377,22.0979463 30.5672035,23.0015798 29.3915419,23.0015798 L28.5517835,23.0015798 C27.3761218,23.0015798 26.4523877,22.0979463 26.4523877,20.9478673 L26.4523877,18.4012638 L30.9870827,18.4012638 C31.1550344,18.4834123 31.4069619,18.5655608 31.5749135,18.6477093 Z M28.5517835,2.79304897 L29.3915419,2.79304897 C30.5672035,2.79304897 31.4909377,3.69668246 31.4909377,4.84676145 L31.4909377,6.98262243 L26.4523877,6.98262243 L26.4523877,4.84676145 C26.5363635,3.77883096 27.4600977,2.79304897 28.5517835,2.79304897 Z M18.6426351,4.84676145 C18.6426351,3.69668246 19.5663693,2.79304897 20.742031,2.79304897 L21.5817893,2.79304897 C22.757451,2.79304897 23.6811852,3.69668246 23.6811852,4.84676145 L23.6811852,7.06477093 C21.1619101,7.47551343 19.230466,9.61137441 19.230466,12.2401264 L19.230466,13.2259084 C19.230466,15.7725118 21.1619101,17.9083728 23.6811852,18.4012638 L23.6811852,21.0300158 C23.6811852,22.1800948 22.757451,23.0837283 21.5817893,23.0837283 L20.742031,23.0837283 C19.5663693,23.0837283 18.6426351,22.1800948 18.6426351,21.0300158 L18.6426351,4.84676145 Z M10.7489067,5.99684044 C10.7489067,4.84676145 11.6726409,3.94312796 12.8483026,3.94312796 L13.6880609,3.94312796 C14.8637226,3.94312796 15.7874568,4.84676145 15.7874568,5.99684044 L15.7874568,22.0979463 C15.7874568,23.2480253 14.8637226,24.1516588 13.6880609,24.1516588 L12.8483026,24.1516588 C11.6726409,24.1516588 10.7489067,23.2480253 10.7489067,22.0979463 L10.7489067,5.99684044 Z M2.85517835,8.21484992 C2.85517835,7.06477093 3.77891252,6.16113744 4.9545742,6.16113744 L5.79433254,6.16113744 C6.96999421,6.16113744 7.89372838,7.06477093 7.89372838,8.21484992 L7.89372838,23.1658768 C7.89372838,24.3159558 6.96999421,25.2195893 5.79433254,25.2195893 L4.9545742,25.2195893 C3.77891252,25.2195893 2.85517835,24.3159558 2.85517835,23.1658768 L2.85517835,8.21484992 Z" id="Shape"></path>
        </g>
    </g>
</svg>