<?xml version="1.0" encoding="UTF-8"?>
<svg width="85px" height="85px" viewBox="0 0 85 85" version="1.1" xmlns="http://www.w3.org/2000/svg" xmlns:xlink="http://www.w3.org/1999/xlink">
    <!-- Generator: Sketch 51.3 (57544) - http://www.bohemiancoding.com/sketch -->
    <title>Artboard 3 Copy</title>
    <desc>Created with Sketch.</desc>
    <defs></defs>
    <g id="Artboard-3-Copy" stroke="none" stroke-width="1" fill="none" fill-rule="evenodd">
        <g id="noun_Hand_959733" transform="translate(13.000000, 9.000000)" fill="#000000" fill-rule="nonzero">
            <g id="Group">
                <path d="M6.80138889,37.3402439 L9.09583333,51.3939024 C9.09583333,51.4756098 9.17777778,51.6390244 9.17777778,51.7207317 L14.2583333,63.4865854 C14.5041667,63.9768293 14.9958333,64.3036585 15.4875,64.3036585 C15.6513889,64.3036585 15.8972222,64.3036585 16.0611111,64.2219512 C16.7986111,63.895122 17.0444444,63.0780488 16.7986111,62.4243902 L11.8,50.8219512 L9.50555556,36.7682927 C9.50555556,36.6865854 9.50555556,36.604878 9.42361111,36.5231707 L3.60555556,19.9365854 C3.27777778,19.1195122 3.6875,18.1390244 4.50694444,17.8121951 L5.08055556,17.5670732 C5.9,17.2402439 6.88333333,17.6487805 7.21111111,18.4658537 C7.21111111,18.547561 7.21111111,18.547561 7.29305556,18.6292683 L15.1597222,33.5817073 C15.4055556,34.0719512 15.8972222,34.3170732 16.3888889,34.3170732 C16.3888889,34.3170732 16.3888889,34.3170732 16.4708333,34.3170732 C16.5527778,34.3170732 16.6347222,34.3170732 16.7166667,34.3170732 C17.4541667,34.1536585 17.9458333,33.4182927 17.7819444,32.6829268 L13.275,8.82439024 C13.0291667,7.59878049 13.9305556,6.37317073 15.1597222,6.12804878 L15.8972222,5.96463415 C16.4708333,5.88292683 17.1263889,5.96463415 17.6180556,6.37317073 C18.1097222,6.78170732 18.4375,7.27195122 18.6013889,7.84390244 L22.6166667,29.5780488 C22.6166667,29.5780488 22.6166667,29.5780488 22.6166667,29.5780488 L22.6166667,29.6597561 C22.6166667,29.6597561 22.6166667,29.7414634 22.6166667,29.7414634 C22.6166667,29.8231707 22.6166667,29.8231707 22.6986111,29.904878 C22.6986111,29.904878 22.6986111,29.9865854 22.7805556,29.9865854 C22.7805556,30.0682927 22.8625,30.0682927 22.8625,30.15 C22.8625,30.15 22.9444444,30.2317073 22.9444444,30.2317073 C22.9444444,30.2317073 23.0263889,30.3134146 23.0263889,30.3134146 C23.0263889,30.3134146 23.1083333,30.395122 23.1083333,30.395122 C23.1083333,30.395122 23.1902778,30.4768293 23.1902778,30.4768293 C23.1902778,30.4768293 23.2722222,30.4768293 23.2722222,30.5585366 C23.3541667,30.5585366 23.3541667,30.6402439 23.4361111,30.6402439 C23.4361111,30.6402439 23.5180556,30.6402439 23.5180556,30.6402439 C23.6,30.6402439 23.6,30.6402439 23.6819444,30.7219512 C23.7638889,30.7219512 23.7638889,30.7219512 23.8458333,30.7219512 C23.8458333,30.7219512 23.9277778,30.7219512 23.9277778,30.7219512 C23.9277778,30.7219512 23.9277778,30.7219512 23.9277778,30.7219512 C23.9277778,30.7219512 23.9277778,30.7219512 23.9277778,30.7219512 C23.9277778,30.7219512 23.9277778,30.7219512 23.9277778,30.7219512 C24.0097222,30.7219512 24.0097222,30.7219512 24.0916667,30.7219512 C24.0916667,30.7219512 24.1736111,30.7219512 24.1736111,30.7219512 C24.1736111,30.7219512 24.1736111,30.7219512 24.1736111,30.7219512 C24.2555556,30.7219512 24.3375,30.6402439 24.4194444,30.6402439 C24.4194444,30.6402439 24.4194444,30.6402439 24.5013889,30.6402439 C24.5833333,30.6402439 24.6652778,30.5585366 24.6652778,30.5585366 C24.6652778,30.5585366 24.7472222,30.4768293 24.7472222,30.4768293 C24.7472222,30.4768293 24.8291667,30.395122 24.8291667,30.395122 C24.8291667,30.395122 24.9111111,30.3134146 24.9111111,30.3134146 C24.9111111,30.3134146 24.9930556,30.2317073 24.9930556,30.15 C24.9930556,30.15 24.9930556,30.0682927 25.075,30.0682927 C25.075,29.9865854 25.1569444,29.9865854 25.1569444,29.904878 C25.1569444,29.904878 25.1569444,29.8231707 25.1569444,29.8231707 C25.1569444,29.7414634 25.1569444,29.7414634 25.2388889,29.6597561 C25.2388889,29.6597561 25.2388889,29.5780488 25.2388889,29.5780488 C25.2388889,29.4963415 25.2388889,29.4963415 25.2388889,29.4146341 L26.55,5.14756098 C26.55,4.49390244 26.7958333,3.8402439 27.2875,3.43170732 C27.7791667,2.94146341 28.4347222,2.69634146 29.0902778,2.69634146 L29.9097222,2.69634146 C31.3027778,2.69634146 32.3680556,3.8402439 32.3680556,5.22926829 L31.7125,28.352439 C31.7125,28.352439 31.7125,28.352439 31.7125,28.4341463 C31.7125,28.5158537 31.7125,28.5158537 31.7125,28.597561 C31.7125,28.6792683 31.7125,28.6792683 31.7125,28.7609756 C31.7125,28.8426829 31.7125,28.8426829 31.7125,28.9243902 C31.7125,29.0060976 31.7125,29.0060976 31.7944444,29.0878049 C31.7944444,29.0878049 31.7944444,29.1695122 31.8763889,29.1695122 C31.8763889,29.1695122 31.9583333,29.2512195 31.9583333,29.2512195 C31.9583333,29.2512195 32.0402778,29.3329268 32.0402778,29.3329268 C32.0402778,29.3329268 32.1222222,29.4146341 32.1222222,29.4146341 C32.1222222,29.4146341 32.2041667,29.4963415 32.2041667,29.4963415 C32.2041667,29.4963415 32.2861111,29.5780488 32.2861111,29.5780488 C32.2861111,29.5780488 32.3680556,29.6597561 32.3680556,29.6597561 C32.45,29.6597561 32.45,29.7414634 32.5319444,29.7414634 C32.5319444,29.7414634 32.5319444,29.7414634 32.6138889,29.7414634 C32.6138889,29.7414634 32.6958333,29.7414634 32.6958333,29.7414634 C32.7777778,29.7414634 32.7777778,29.7414634 32.8597222,29.7414634 C32.9416667,29.7414634 32.9416667,29.7414634 33.0236111,29.7414634 C33.0236111,29.7414634 33.1055556,29.7414634 33.1055556,29.7414634 C33.1055556,29.7414634 33.1875,29.7414634 33.1875,29.7414634 C33.2694444,29.7414634 33.2694444,29.7414634 33.3513889,29.7414634 C33.4333333,29.7414634 33.4333333,29.7414634 33.5152778,29.7414634 C33.5152778,29.7414634 33.5972222,29.7414634 33.5972222,29.7414634 C33.6791667,29.7414634 33.6791667,29.7414634 33.7611111,29.6597561 C33.7611111,29.6597561 33.8430556,29.6597561 33.8430556,29.6597561 C33.925,29.6597561 33.925,29.5780488 34.0069444,29.5780488 C34.0069444,29.5780488 34.0888889,29.5780488 34.0888889,29.4963415 C34.1708333,29.4963415 34.1708333,29.4146341 34.2527778,29.4146341 C34.2527778,29.4146341 34.3347222,29.3329268 34.3347222,29.3329268 C34.3347222,29.2512195 34.4166667,29.2512195 34.4166667,29.1695122 C34.4166667,29.1695122 34.4166667,29.0878049 34.4986111,29.0878049 C34.4986111,29.0060976 34.5805556,29.0060976 34.5805556,28.9243902 C34.5805556,28.9243902 34.5805556,28.9243902 34.5805556,28.8426829 L40.7263889,11.0304878 C41.2180556,9.72317073 42.6111111,9.0695122 43.9222222,9.47804878 L44.6597222,9.72317073 C45.3152778,9.96829268 45.8069444,10.3768293 46.0527778,11.0304878 C46.2986111,11.6841463 46.3805556,12.3378049 46.1347222,12.9914634 L40.2347222,32.7646341 C38.5138889,40.1182927 39.5791667,42.4878049 40.8083333,43.1414634 C41.3819444,43.4682927 42.1194444,43.304878 42.5291667,42.8146341 L50.5597222,33.5817073 C50.6416667,33.5 50.6416667,33.4182927 50.7236111,33.3365854 C51.0513889,32.7646341 51.625,32.3560976 52.2805556,32.1926829 C52.9361111,32.0292683 53.5916667,32.1109756 54.1652778,32.4378049 L54.9027778,32.8463415 C55.4763889,33.1731707 55.8861111,33.745122 56.05,34.3987805 C56.2138889,35.052439 56.1319444,35.7060976 55.8041667,36.2780488 L46.2166667,49.8414634 L38.35,61.852439 C38.1861111,62.097561 38.1041667,62.3426829 38.1041667,62.5878049 L38.1041667,65.2841463 C38.1041667,66.0195122 38.7597222,66.6731707 39.4972222,66.6731707 C40.2347222,66.6731707 40.8902778,66.0195122 40.8902778,65.2841463 L40.8902778,62.9963415 L48.5111111,51.3939024 L58.1805556,37.9121951 C58.1805556,37.9121951 58.2625,37.8304878 58.2625,37.8304878 C59,36.604878 59.1638889,35.2158537 58.8361111,33.8268293 C58.5083333,32.4378049 57.6069444,31.2939024 56.3777778,30.6402439 L55.6402778,30.2317073 C54.4111111,29.4963415 53.0180556,29.3329268 51.625,29.6597561 C50.3138889,29.9865854 49.1666667,30.8036585 48.5111111,31.947561 L42.1194444,39.2195122 C42.1194444,37.7487805 42.4472222,35.6243902 42.9388889,33.6634146 L48.8388889,14.0536585 C49.3305556,12.7463415 49.2486111,11.2756098 48.5930556,10.05 C47.9375,8.82439024 46.9541667,7.84390244 45.5611111,7.35365854 L44.8236111,7.10853659 C42.1194444,6.12804878 39.0875,7.59878049 38.1041667,10.295122 L34.9083333,19.6097561 L35.3180556,5.39268293 C35.3180556,2.53292683 33.0236111,0.0817073171 30.1555556,0.0817073171 L29.3361111,0.0817073171 C27.9430556,0.0817073171 26.6319444,0.57195122 25.5666667,1.55243902 C24.5833333,2.53292683 24.0097222,3.8402439 24.0097222,5.14756098 L23.3541667,17.7304878 L21.4694444,7.43536585 C21.2236111,6.12804878 20.4861111,4.90243902 19.3388889,4.16707317 C18.1916667,3.35 16.8805556,3.10487805 15.5694444,3.35 L14.75,3.51341463 C11.9638889,4.00365854 10.1611111,6.61829268 10.6527778,9.39634146 L13.4388889,24.2670732 L9.83333333,17.4853659 C9.42361111,16.4231707 8.60416667,15.6060976 7.53888889,15.1158537 C6.47361111,14.6256098 5.24444444,14.6256098 4.17916667,15.0341463 L3.60555556,15.2792683 C1.31111111,16.1780488 0.245833333,18.7109756 1.06527778,20.9170732 L6.80138889,37.3402439 Z" id="Shape"></path>
                <path d="M34.0069444,42.4878049 C33.5972222,42.6512195 24.2555556,47.2268293 24.4194444,55.0707317 C24.4194444,55.8060976 25.075,56.3780488 25.8125,56.3780488 C25.8125,56.3780488 25.8125,56.3780488 25.8125,56.3780488 C26.55,56.3780488 27.2055556,55.7243902 27.1236111,54.9890244 C27.0416667,49.0243902 35.0722222,45.0207317 35.1541667,45.0207317 C35.8097222,44.6939024 36.1375,43.8768293 35.8097222,43.2231707 C35.4819444,42.4878049 34.6625,42.1609756 34.0069444,42.4878049 Z" id="Shape"></path>
            </g>
        </g>
    </g>
</svg>