<?xml version="1.0" encoding="UTF-8"?>
<svg width="54px" height="61px" viewBox="0 0 54 61" version="1.1" xmlns="http://www.w3.org/2000/svg" xmlns:xlink="http://www.w3.org/1999/xlink">
    <!-- Generator: Sketch 51.3 (57544) - http://www.bohemiancoding.com/sketch -->
    <title>playerPaper</title>
    <desc>Created with Sketch.</desc>
    <defs></defs>
    <g id="Page-1" stroke="none" stroke-width="1" fill="none" fill-rule="evenodd">
        <g id="Artboard-Copy" transform="translate(-53.000000, -220.000000)" fill="#000000" fill-rule="nonzero">
            <g id="playerPaper" transform="translate(53.000000, 220.000000)">
                <g id="Group">
                    <path d="M6.13590957,33.784466 L8.20585497,46.4998448 C8.20585497,46.5737714 8.27978159,46.7216247 8.27978159,46.7955513 L12.8632321,57.4409848 C13.085012,57.8845445 13.5285717,58.180251 13.9721314,58.180251 C14.1199847,58.180251 14.3417645,58.180251 14.4896178,58.1063244 C15.1549574,57.8106179 15.3767372,57.0713517 15.1549574,56.4799387 L10.6454335,45.9823585 L8.57548808,33.2669796 C8.57548808,33.193053 8.57548808,33.1191264 8.50156145,33.0451997 L3.25277134,18.0380956 C2.95706485,17.2988294 3.32669796,16.4117099 4.06596417,16.1160035 L4.58345052,15.8942236 C5.32271674,15.5985171 6.20983619,15.9681502 6.50554268,16.7074164 C6.50554268,16.781343 6.50554268,16.781343 6.5794693,16.8552697 L13.6764249,30.3838414 C13.8982048,30.8274011 14.3417645,31.049181 14.7853243,31.049181 C14.7853243,31.049181 14.7853243,31.049181 14.8592509,31.049181 C14.9331775,31.049181 15.0071041,31.049181 15.0810308,31.049181 C15.7463703,30.9013277 16.1899301,30.2359881 16.0420768,29.5706485 L11.9761127,7.98407511 C11.7543328,6.87517578 12.5675256,5.76627646 13.6764249,5.5444966 L14.3417645,5.39664336 C14.8592509,5.32271674 15.4506639,5.39664336 15.8942236,5.76627646 C16.3377833,6.13590957 16.6334898,6.5794693 16.781343,7.09695565 L20.4037475,26.7614369 C20.4037475,26.7614369 20.4037475,26.7614369 20.4037475,26.7614369 L20.4037475,26.8353635 C20.4037475,26.8353635 20.4037475,26.9092902 20.4037475,26.9092902 C20.4037475,26.9832168 20.4037475,26.9832168 20.4776741,27.0571434 C20.4776741,27.0571434 20.4776741,27.13107 20.5516007,27.13107 C20.5516007,27.2049967 20.6255274,27.2049967 20.6255274,27.2789233 C20.6255274,27.2789233 20.699454,27.3528499 20.699454,27.3528499 C20.699454,27.3528499 20.7733806,27.4267765 20.7733806,27.4267765 C20.7733806,27.4267765 20.8473072,27.5007031 20.8473072,27.5007031 C20.8473072,27.5007031 20.9212338,27.5746298 20.9212338,27.5746298 C20.9212338,27.5746298 20.9951605,27.5746298 20.9951605,27.6485564 C21.0690871,27.6485564 21.0690871,27.722483 21.1430137,27.722483 C21.1430137,27.722483 21.2169403,27.722483 21.2169403,27.722483 C21.2908669,27.722483 21.2908669,27.722483 21.3647936,27.7964096 C21.4387202,27.7964096 21.4387202,27.7964096 21.5126468,27.7964096 C21.5126468,27.7964096 21.5865734,27.7964096 21.5865734,27.7964096 C21.5865734,27.7964096 21.5865734,27.7964096 21.5865734,27.7964096 C21.5865734,27.7964096 21.5865734,27.7964096 21.5865734,27.7964096 C21.5865734,27.7964096 21.5865734,27.7964096 21.5865734,27.7964096 C21.6605001,27.7964096 21.6605001,27.7964096 21.7344267,27.7964096 C21.7344267,27.7964096 21.8083533,27.7964096 21.8083533,27.7964096 C21.8083533,27.7964096 21.8083533,27.7964096 21.8083533,27.7964096 C21.8822799,27.7964096 21.9562065,27.722483 22.0301332,27.722483 C22.0301332,27.722483 22.0301332,27.722483 22.1040598,27.722483 C22.1779864,27.722483 22.251913,27.6485564 22.251913,27.6485564 C22.251913,27.6485564 22.3258396,27.5746298 22.3258396,27.5746298 C22.3258396,27.5746298 22.3997663,27.5007031 22.3997663,27.5007031 C22.3997663,27.5007031 22.4736929,27.4267765 22.4736929,27.4267765 C22.4736929,27.4267765 22.5476195,27.3528499 22.5476195,27.2789233 C22.5476195,27.2789233 22.5476195,27.2049967 22.6215461,27.2049967 C22.6215461,27.13107 22.6954728,27.13107 22.6954728,27.0571434 C22.6954728,27.0571434 22.6954728,26.9832168 22.6954728,26.9832168 C22.6954728,26.9092902 22.6954728,26.9092902 22.7693994,26.8353635 C22.7693994,26.8353635 22.7693994,26.7614369 22.7693994,26.7614369 C22.7693994,26.6875103 22.7693994,26.6875103 22.7693994,26.6135837 L23.9522253,4.65737714 C23.9522253,4.06596417 24.1740052,3.4745512 24.6175649,3.1049181 C25.0611246,2.66135837 25.6525376,2.4395785 26.2439506,2.4395785 L26.9832168,2.4395785 C28.2399694,2.4395785 29.2010154,3.4745512 29.2010154,4.73130377 L28.6096025,25.6525376 C28.6096025,25.6525376 28.6096025,25.6525376 28.6096025,25.7264642 C28.6096025,25.8003908 28.6096025,25.8003908 28.6096025,25.8743175 C28.6096025,25.9482441 28.6096025,25.9482441 28.6096025,26.0221707 C28.6096025,26.0960973 28.6096025,26.0960973 28.6096025,26.170024 C28.6096025,26.2439506 28.6096025,26.2439506 28.6835291,26.3178772 C28.6835291,26.3178772 28.6835291,26.3918038 28.7574557,26.3918038 C28.7574557,26.3918038 28.8313823,26.4657304 28.8313823,26.4657304 C28.8313823,26.4657304 28.9053089,26.5396571 28.9053089,26.5396571 C28.9053089,26.5396571 28.9792356,26.6135837 28.9792356,26.6135837 C28.9792356,26.6135837 29.0531622,26.6875103 29.0531622,26.6875103 C29.0531622,26.6875103 29.1270888,26.7614369 29.1270888,26.7614369 C29.1270888,26.7614369 29.2010154,26.8353635 29.2010154,26.8353635 C29.2749421,26.8353635 29.2749421,26.9092902 29.3488687,26.9092902 C29.3488687,26.9092902 29.3488687,26.9092902 29.4227953,26.9092902 C29.4227953,26.9092902 29.4967219,26.9092902 29.4967219,26.9092902 C29.5706485,26.9092902 29.5706485,26.9092902 29.6445752,26.9092902 C29.7185018,26.9092902 29.7185018,26.9092902 29.7924284,26.9092902 C29.7924284,26.9092902 29.866355,26.9092902 29.866355,26.9092902 C29.866355,26.9092902 29.9402816,26.9092902 29.9402816,26.9092902 C30.0142083,26.9092902 30.0142083,26.9092902 30.0881349,26.9092902 C30.1620615,26.9092902 30.1620615,26.9092902 30.2359881,26.9092902 C30.2359881,26.9092902 30.3099148,26.9092902 30.3099148,26.9092902 C30.3838414,26.9092902 30.3838414,26.9092902 30.457768,26.8353635 C30.457768,26.8353635 30.5316946,26.8353635 30.5316946,26.8353635 C30.6056212,26.8353635 30.6056212,26.7614369 30.6795479,26.7614369 C30.6795479,26.7614369 30.7534745,26.7614369 30.7534745,26.6875103 C30.8274011,26.6875103 30.8274011,26.6135837 30.9013277,26.6135837 C30.9013277,26.6135837 30.9752543,26.5396571 30.9752543,26.5396571 C30.9752543,26.4657304 31.049181,26.4657304 31.049181,26.3918038 C31.049181,26.3918038 31.049181,26.3178772 31.1231076,26.3178772 C31.1231076,26.2439506 31.1970342,26.2439506 31.1970342,26.170024 C31.1970342,26.170024 31.1970342,26.170024 31.1970342,26.0960973 L36.7415308,9.98009388 C37.1850905,8.79726794 38.4418431,8.20585497 39.624669,8.57548808 L40.2900086,8.79726794 C40.8814216,9.0190478 41.3249813,9.38868091 41.5467612,9.98009388 C41.7685411,10.5715069 41.8424677,11.1629198 41.6206878,11.7543328 L36.2979711,29.6445752 C34.745512,36.2979711 35.7065581,38.4418431 36.8154574,39.0332561 C37.3329438,39.3289626 37.9982834,39.1811093 38.3679165,38.7375496 L45.6127254,30.3838414 C45.686652,30.3099148 45.686652,30.2359881 45.7605786,30.1620615 C46.0562851,29.6445752 46.5737714,29.2749421 47.1651844,29.1270888 C47.7565974,28.9792356 48.3480104,29.0531622 48.8654967,29.3488687 L49.5308363,29.7185018 C50.0483226,30.0142083 50.4179558,30.5316946 50.565809,31.1231076 C50.7136622,31.7145206 50.6397356,32.3059335 50.3440291,32.8234199 L41.6946144,45.095239 L34.5976588,55.9624524 C34.4498055,56.1842322 34.3758789,56.4060121 34.3758789,56.6277919 L34.3758789,59.0673705 C34.3758789,59.73271 34.9672919,60.324123 35.6326315,60.324123 C36.2979711,60.324123 36.8893841,59.73271 36.8893841,59.0673705 L36.8893841,56.9974251 L43.7645598,46.4998448 L52.4879012,34.3019523 C52.4879012,34.3019523 52.5618278,34.2280257 52.5618278,34.2280257 C53.2271674,33.1191264 53.3750206,31.8623738 53.0793141,30.6056212 C52.7836076,29.3488687 51.9704148,28.313896 50.8615155,27.722483 L50.1961759,27.3528499 C49.0872766,26.6875103 47.830524,26.5396571 46.5737714,26.8353635 C45.3909455,27.13107 44.3559728,27.8703362 43.7645598,28.9053089 L37.9982834,35.4847782 C37.9982834,34.1540991 38.2939899,32.2320069 38.7375496,30.457768 L44.0602663,12.7153789 C44.503826,11.5325529 44.4298994,10.2018737 43.8384865,9.09297443 C43.2470735,7.98407511 42.359954,7.09695565 41.1032015,6.65339592 L40.4378619,6.43161606 C37.9982834,5.5444966 35.2629984,6.87517578 34.3758789,9.31475429 L31.4927407,17.7423891 L31.8623738,4.87915701 C31.8623738,2.29172526 29.7924284,0.0739266213 27.2049967,0.0739266213 L26.4657304,0.0739266213 C25.2089779,0.0739266213 24.0261519,0.517486349 23.0651059,1.40460581 C22.1779864,2.29172526 21.6605001,3.4745512 21.6605001,4.65737714 L21.0690871,16.0420768 L19.3687748,6.72732254 C19.1469949,5.5444966 18.4816553,4.43559728 17.4466826,3.77025769 C16.4117099,3.03099148 15.228884,2.80921161 14.0460581,3.03099148 L13.3067918,3.17884472 C10.7932867,3.62240445 9.16690105,5.98805633 9.61046077,8.50156145 L12.1239659,21.9562065 L8.87119456,15.820297 C8.50156145,14.8592509 7.76229524,14.1199847 6.80124916,13.6764249 C5.84020309,13.2328652 4.73130377,13.2328652 3.77025769,13.6024983 L3.25277134,13.8242782 C1.18282594,14.637471 0.221779864,16.9291963 0.961046077,18.9252151 L6.13590957,33.784466 Z" id="Shape"></path>
                    <path d="M30.6795479,38.4418431 C30.3099148,38.5896963 21.8822799,42.7295871 22.0301332,49.8265428 C22.0301332,50.4918824 22.6215461,51.0093687 23.2868857,51.0093687 C23.2868857,51.0093687 23.2868857,51.0093687 23.2868857,51.0093687 C23.9522253,51.0093687 24.5436383,50.4179558 24.4697117,49.7526162 C24.395785,44.3559728 31.6405939,40.7335684 31.7145206,40.7335684 C32.3059335,40.4378619 32.60164,39.6985957 32.3059335,39.1071827 C32.010227,38.4418431 31.2709608,38.1461366 30.6795479,38.4418431 Z" id="Shape"></path>
                </g>
            </g>
        </g>
    </g>
</svg>