<?xml version="1.0" encoding="UTF-8"?>
<svg width="45px" height="55px" viewBox="0 0 45 55" version="1.1" xmlns="http://www.w3.org/2000/svg" xmlns:xlink="http://www.w3.org/1999/xlink">
    <!-- Generator: Sketch 51.3 (57544) - http://www.bohemiancoding.com/sketch -->
    <title>playerRock</title>
    <desc>Created with Sketch.</desc>
    <defs></defs>
    <g id="Page-1" stroke="none" stroke-width="1" fill="none" fill-rule="evenodd">
        <g id="Artboard-Copy" transform="translate(-166.000000, -226.000000)" fill="#000000" fill-rule="nonzero">
            <g id="playerRock" transform="translate(188.500000, 253.500000) rotate(-180.000000) translate(-188.500000, -253.500000) translate(166.000000, 226.000000)">
                <path d="M0,8.63295154 L0,24.3449233 C0,25.2082185 0.172659031,25.9851841 0.604306608,26.6758203 L0.604306608,40.2295542 C0.604306608,40.4885427 0.690636123,40.6612018 0.776965639,40.8338608 L6.99269075,53.7832881 C7.25167929,54.3012652 7.76965639,54.6465833 8.28763348,54.6465833 C8.46029251,54.6465833 8.71928106,54.5602537 8.89194009,54.4739242 C9.58257621,54.1286062 9.92789427,53.265311 9.58257621,52.4883454 L3.53951013,39.7979066 L3.53951013,29.1793762 C4.05748722,29.3520352 4.57546432,29.4383648 5.09344141,29.4383648 L5.95673656,29.4383648 C7.68332687,29.4383648 9.23725815,28.5750696 10.1005533,27.2801269 C10.9638485,27.8844335 11.9998026,28.3160811 13.1220863,28.3160811 L13.9853815,28.3160811 C15.7119718,28.3160811 17.2659031,27.4527859 18.1291982,26.1578432 C18.9924934,26.7621498 20.0284476,27.1937974 21.1507313,27.1937974 L22.0140264,27.1937974 C22.273015,27.1937974 22.5320035,27.1937974 22.7046626,27.1074678 C19.8557885,29.4383648 17.6975507,34.1864881 18.0428687,44.3733709 C18.0428687,45.1503366 18.7335048,45.8409727 19.5104705,45.7546432 C20.2874361,45.7546432 20.9780722,45.064007 20.8917427,44.2870414 C20.3737656,29.0067172 25.3808775,28.2297515 29.7836828,27.5391154 C30.7333075,27.3664564 31.5102731,27.2801269 32.3735683,27.0211383 C33.7548405,26.7621498 36.172067,25.467207 36.2583965,21.5823789 C36.344726,18.1291982 33.5821815,16.747926 32.1145797,16.4889374 C32.0282502,16.4889374 31.9419207,16.4889374 31.8555912,16.4889374 L25.121889,16.4889374 C23.6542872,16.4889374 22.5320035,15.3666537 22.5320035,13.899052 L22.5320035,12.8630978 C22.5320035,11.395496 23.6542872,10.2732123 25.121889,10.2732123 L38.6756229,10.2732123 C40.1432247,10.2732123 41.2655084,11.395496 41.2655084,12.8630978 L41.2655084,36.6037145 C41.2655084,36.8627031 41.5244969,43.1647577 35.9130784,44.9776775 C35.3087718,45.1503366 34.8771242,45.7546432 34.8771242,46.3589498 L34.8771242,53.1789815 C34.8771242,53.9559471 35.5677604,54.6465833 36.344726,54.6465833 C37.1216916,54.6465833 37.8123278,53.9559471 37.8123278,53.1789815 L37.8123278,47.3085744 C43.1647577,44.9776775 44.2870414,39.2799295 44.2007119,36.4310555 L44.2007119,12.8630978 C44.2007119,9.84156476 41.6971559,7.33800881 38.6756229,7.33800881 L35.2224423,7.33800881 L35.2224423,5.09344141 C35.2224423,2.33089692 32.9778749,1.53352025e-15 30.1290009,1.53352025e-15 L29.2657057,1.53352025e-15 C27.8844335,1.53352025e-15 26.5894907,0.604306608 25.6398661,1.55393128 C24.6902414,0.604306608 23.4816282,0 22.0140264,0 L21.1507313,0 C19.424141,0 17.8702097,0.863295154 17.0069145,2.15823789 C16.1436194,1.55393128 15.1076652,1.1222837 13.9853815,1.1222837 L13.1220863,1.1222837 C11.050178,1.1222837 9.23725815,2.33089692 8.46029251,4.14381674 C7.68332687,3.71216916 6.82003172,3.45318062 5.87040705,3.45318062 L5.00711189,3.45318062 C2.2445674,3.53951013 0,5.78407753 0,8.63295154 Z M32.4598978,19.5968 C32.4598978,19.6831295 32.3735683,19.8557885 32.3735683,19.9421181 L32.3735683,22.0140264 C32.3735683,23.2226396 31.4239436,24.1722643 30.2153304,24.1722643 L29.3520352,24.1722643 C28.143422,24.1722643 27.1937974,23.2226396 27.1937974,22.0140264 L27.1937974,19.3378115 L31.8555912,19.3378115 C32.0282502,19.424141 32.2872388,19.5104705 32.4598978,19.5968 Z M29.3520352,2.93520352 L30.2153304,2.93520352 C31.4239436,2.93520352 32.3735683,3.88482819 32.3735683,5.09344141 L32.3735683,7.33800881 L27.1937974,7.33800881 L27.1937974,5.09344141 C27.2801269,3.97115771 28.2297515,2.93520352 29.3520352,2.93520352 Z M19.1651524,5.09344141 C19.1651524,3.88482819 20.1147771,2.93520352 21.3233903,2.93520352 L22.1866855,2.93520352 C23.3952987,2.93520352 24.3449233,3.88482819 24.3449233,5.09344141 L24.3449233,7.42433833 C21.7550379,7.8559859 19.769459,10.1005533 19.769459,12.8630978 L19.769459,13.899052 C19.769459,16.575267 21.7550379,18.8198344 24.3449233,19.3378115 L24.3449233,22.1003559 C24.3449233,23.3089692 23.3952987,24.2585938 22.1866855,24.2585938 L21.3233903,24.2585938 C20.1147771,24.2585938 19.1651524,23.3089692 19.1651524,22.1003559 L19.1651524,5.09344141 Z M11.050178,6.30205463 C11.050178,5.09344141 11.9998026,4.14381674 13.2084159,4.14381674 L14.071711,4.14381674 C15.2803242,4.14381674 16.2299489,5.09344141 16.2299489,6.30205463 L16.2299489,23.2226396 C16.2299489,24.4312529 15.2803242,25.3808775 14.071711,25.3808775 L13.2084159,25.3808775 C11.9998026,25.3808775 11.050178,24.4312529 11.050178,23.2226396 L11.050178,6.30205463 Z M2.93520352,8.63295154 C2.93520352,7.42433833 3.88482819,6.47471366 5.09344141,6.47471366 L5.95673656,6.47471366 C7.16534978,6.47471366 8.11497445,7.42433833 8.11497445,8.63295154 L8.11497445,24.3449233 C8.11497445,25.5535366 7.16534978,26.5031612 5.95673656,26.5031612 L5.09344141,26.5031612 C3.88482819,26.5031612 2.93520352,25.5535366 2.93520352,24.3449233 L2.93520352,8.63295154 Z" id="Shape" transform="translate(22.102604, 27.323292) rotate(-180.000000) translate(-22.102604, -27.323292) "></path>
            </g>
        </g>
    </g>
</svg>